<?xml version="1.0" encoding="utf-8"?>
<!-- Generator: Adobe Illustrator 23.0.1, SVG Export Plug-In . SVG Version: 6.00 Build 0)  -->
<svg version="1.1" id="Layer_1" xmlns="http://www.w3.org/2000/svg" xmlns:xlink="http://www.w3.org/1999/xlink" x="0px" y="0px"
	 viewBox="0 0 150 50" style="enable-background:new 0 0 150 50;" xml:space="preserve">
<style type="text/css">
	.st0{fill:#FFFFFF;}
	.st1{clip-path:url(#SVGID_2_);fill:#08723C;}
	.st2{clip-path:url(#SVGID_4_);fill:#08723C;}
	.st3{clip-path:url(#SVGID_6_);fill:#08723C;}
	.st4{clip-path:url(#SVGID_8_);fill:#08723C;}
	.st5{clip-path:url(#SVGID_10_);fill:#08723C;}
	.st6{clip-path:url(#SVGID_12_);fill:#08723C;}
	.st7{fill:#241F20;}
	.st8{clip-path:url(#SVGID_14_);fill:#08723C;}
	.st9{clip-path:url(#SVGID_16_);fill:#08723C;}
	.st10{clip-path:url(#SVGID_18_);fill:#08723C;}
	.st11{clip-path:url(#SVGID_20_);fill:#08723C;}
	.st12{clip-path:url(#SVGID_22_);fill:#08723C;}
	.st13{clip-path:url(#SVGID_24_);fill:#08723C;}
</style>
<g>
	<g>
		<rect x="80.7" y="4.3" class="st7" width="0.7" height="41.9"/>
	</g>
	<g>
		<path class="st7" d="M112.2,7.8c0.7-0.8,1.2-2,1-3.2c-1,0-2.2,0.7-2.9,1.5c-0.7,0.8-1.1,1.9-1,3.1C110.4,9.3,111.5,8.7,112.2,7.8"
			/>
		<path class="st7" d="M117.4,19.1c0,0.1-0.4,1.4-1.3,2.8c-0.9,1.2-1.7,2.4-3.1,2.5c-1.4,0-1.8-0.8-3.3-0.8c-1.4,0-1.9,0.7-3.2,0.8
			c-1.3,0.1-2.3-1.3-3.1-2.5c-1.7-2.5-3-6.9-1.3-9.9c0.9-1.5,2.4-2.5,4.1-2.5c1.3,0,2.5,0.9,3.3,0.9c0.7,0,2.2-1.1,3.8-0.9
			c0.6,0,2.5,0.3,3.6,2c-0.1,0-2.2,1.3-2.2,3.7C114.8,18.2,117.4,19.1,117.4,19.1"/>
		<path class="st7" d="M94.8,29.7c1.1,0,1.9,0.8,1.9,2c0,1.1-0.8,1.9-2,1.9h-1.4v2h-0.9v-5.9H94.8 M93.4,32.8h1.1
			c0.8,0,1.2-0.4,1.2-1.1c0-0.7-0.4-1.1-1.2-1.1h-1.1V32.8z"/>
		<path class="st7" d="M97.7,31.2h0.8v0.7h0.1c0.1-0.4,0.6-0.8,1.2-0.8c0.1,0,0.3,0,0.4,0V32c-0.1,0-0.3-0.1-0.5-0.1
			c-0.7,0-1.1,0.4-1.1,1v2.6h-0.9V31.2"/>
		<path class="st7" d="M104.6,34.4c-0.2,0.8-0.9,1.3-1.9,1.3c-1.3,0-2-0.9-2-2.3c0-1.4,0.8-2.3,2-2.3c1.2,0,2,0.8,2,2.2v0.3h-3.1v0
			c0,0.8,0.5,1.3,1.2,1.3c0.5,0,0.9-0.2,1.1-0.5H104.6 M101.5,33h2.2c0-0.7-0.4-1.1-1.1-1.1C102,31.8,101.6,32.3,101.5,33z"/>
		<path class="st7" d="M105.6,31.2h0.8v0.7h0.1c0.2-0.5,0.6-0.8,1.2-0.8c0.6,0,1,0.3,1.2,0.8h0.1c0.2-0.5,0.7-0.8,1.3-0.8
			c0.9,0,1.4,0.5,1.4,1.5v3h-0.9v-2.8c0-0.6-0.3-0.9-0.9-0.9c-0.6,0-0.9,0.4-0.9,0.9v2.8h-0.9v-2.9c0-0.5-0.3-0.8-0.9-0.8
			c-0.5,0-0.9,0.4-0.9,1v2.7h-0.9V31.2"/>
		<path class="st7" d="M113,29.8c0-0.3,0.2-0.5,0.6-0.5c0.3,0,0.6,0.2,0.6,0.5c0,0.3-0.2,0.5-0.6,0.5C113.3,30.4,113,30.1,113,29.8
			 M113.1,31.2h0.9v4.4h-0.9V31.2z"/>
		<path class="st7" d="M119.1,35.6h-0.8v-0.7h-0.1c-0.2,0.5-0.7,0.8-1.3,0.8c-1,0-1.5-0.6-1.5-1.6v-2.9h0.9v2.6
			c0,0.7,0.3,1.1,0.9,1.1c0.7,0,1.1-0.4,1.1-1.1v-2.6h0.9V35.6"/>
		<path class="st7" d="M120.4,31.2h0.8v0.7h0.1c0.2-0.5,0.6-0.8,1.2-0.8c0.6,0,1,0.3,1.2,0.8h0.1c0.2-0.5,0.7-0.8,1.3-0.8
			c0.9,0,1.4,0.5,1.4,1.5v3h-0.9v-2.8c0-0.6-0.3-0.9-0.9-0.9c-0.6,0-0.9,0.4-0.9,0.9v2.8H123v-2.9c0-0.5-0.3-0.8-0.9-0.8
			c-0.5,0-0.9,0.4-0.9,1v2.7h-0.9V31.2"/>
		<path class="st7" d="M95,44.6h-0.9v-5.9h2.3c1.2,0,1.9,0.7,1.9,1.8c0,0.8-0.4,1.4-1.1,1.7l1.3,2.4h-1.1l-1.2-2.2H95V44.6 M95,41.5
			h1.3c0.7,0,1.1-0.4,1.1-1c0-0.6-0.4-1-1.1-1H95V41.5z"/>
		<path class="st7" d="M103.1,43.4c-0.2,0.8-0.9,1.3-1.9,1.3c-1.3,0-2-0.9-2-2.3c0-1.4,0.8-2.3,2-2.3c1.2,0,2,0.8,2,2.2v0.3h-3.1v0
			c0,0.8,0.5,1.3,1.2,1.3c0.5,0,0.9-0.2,1.1-0.5H103.1 M100.1,41.9h2.2c0-0.7-0.4-1.1-1.1-1.1C100.6,40.8,100.1,41.2,100.1,41.9z"/>
		<path class="st7" d="M105.7,40c1,0,1.6,0.5,1.7,1.2h-0.8c-0.1-0.3-0.4-0.5-0.9-0.5c-0.5,0-0.9,0.2-0.9,0.6c0,0.3,0.2,0.4,0.7,0.5
			l0.7,0.2c0.8,0.2,1.2,0.6,1.2,1.2c0,0.8-0.8,1.4-1.8,1.4c-1.1,0-1.7-0.5-1.8-1.3h0.9c0.1,0.3,0.4,0.6,1,0.6c0.5,0,0.9-0.2,0.9-0.6
			c0-0.3-0.2-0.4-0.6-0.5l-0.8-0.2c-0.8-0.2-1.2-0.6-1.2-1.2C103.9,40.6,104.7,40,105.7,40"/>
		<path class="st7" d="M112.2,43.4c-0.2,0.8-0.9,1.3-1.9,1.3c-1.3,0-2-0.9-2-2.3c0-1.4,0.8-2.3,2-2.3c1.2,0,2,0.8,2,2.2v0.3h-3.1v0
			c0,0.8,0.5,1.3,1.2,1.3c0.5,0,0.9-0.2,1.1-0.5H112.2 M109.1,41.9h2.2c0-0.7-0.4-1.1-1.1-1.1C109.6,40.8,109.1,41.2,109.1,41.9z"/>
		<rect x="113.3" y="38.4" class="st7" width="0.9" height="6.2"/>
		<rect x="115.7" y="38.4" class="st7" width="0.9" height="6.2"/>
		<path class="st7" d="M121.6,43.4c-0.2,0.8-0.9,1.3-1.9,1.3c-1.3,0-2-0.9-2-2.3c0-1.4,0.8-2.3,2-2.3c1.2,0,2,0.8,2,2.2v0.3h-3.1v0
			c0,0.8,0.5,1.3,1.2,1.3c0.5,0,0.9-0.2,1.1-0.5H121.6 M118.5,41.9h2.2c0-0.7-0.4-1.1-1.1-1.1C119,40.8,118.6,41.2,118.5,41.9z"/>
		<path class="st7" d="M122.7,40.1h0.8v0.7h0.1c0.1-0.4,0.6-0.8,1.2-0.8c0.1,0,0.3,0,0.4,0V41c-0.1,0-0.3-0.1-0.5-0.1
			c-0.7,0-1.1,0.4-1.1,1v2.6h-0.9V40.1"/>
	</g>
	<g>
		<g>
			<g>
				<g>
					<path class="st7" d="M25.3,44.5h1v-6.2h-1.9v1.2h-1v-2.2h6.9v2.2h-1v-1.2h-1.9v6.2h1v0.9h-3.2V44.5z"/>
				</g>
				<g>
					<path class="st7" d="M30.8,44.6h0.9v-3.8c0-0.2-0.1-0.2-0.2-0.2h-0.7v-0.9H32c0.5,0,0.7,0.2,0.7,0.7v0.4c0,0.2,0,0.4,0,0.4h0
						c0.3-0.8,0.9-1.5,1.8-1.5c0.1,0,0.3,0,0.3,0v1.1c0,0-0.1,0-0.3,0c-1.2,0-1.7,1.2-1.7,2.4v1.5h0.9v0.9h-2.8V44.6z"/>
				</g>
				<g>
					<path class="st7" d="M38.3,41.9h0.4v-0.2c0-0.9-0.5-1.2-1.2-1.2c-0.9,0-1.6,0.6-1.6,0.6l-0.4-0.8c0,0,0.8-0.7,2.2-0.7
						c1.5,0,2.2,0.8,2.2,2.2v2.6c0,0.2,0.1,0.2,0.2,0.2h0.6v0.9h-1.1c-0.5,0-0.7-0.2-0.7-0.6v-0.1c0-0.2,0-0.4,0-0.4h0
						c0,0-0.5,1.2-1.9,1.2c-1,0-1.9-0.6-1.9-1.7C34.9,42,37.3,41.9,38.3,41.9z M37.1,44.7c1,0,1.6-1,1.6-1.9v-0.2h-0.3
						c-0.5,0-2.3,0-2.3,1.1C36,44.3,36.4,44.7,37.1,44.7z"/>
				</g>
				<g>
					<path class="st7" d="M43.3,39.6c1.3,0,1.8,1,1.8,1h0c0,0,0-0.2,0-0.4v-1.8h-1v-0.9h2.1v6.9c0,0.2,0.1,0.2,0.2,0.2H47v0.9h-1.1
						c-0.5,0-0.7-0.2-0.7-0.6v-0.1c0-0.2,0-0.3,0-0.3h0c0,0-0.5,1.1-1.9,1.1c-1.5,0-2.5-1.2-2.5-3C40.7,40.7,41.8,39.6,43.3,39.6z
						 M43.5,44.6c0.9,0,1.7-0.6,1.7-2c0-1.1-0.5-2.1-1.6-2.1c-0.9,0-1.7,0.7-1.7,2C41.8,43.8,42.5,44.6,43.5,44.6z"/>
				</g>
				<g>
					<path class="st7" d="M50.1,39.6c1.6,0,2.5,1.2,2.5,2.7c0,0.1,0,0.4,0,0.4h-4.2c0.1,1.3,1,2,2,2c1,0,1.7-0.6,1.7-0.6l0.5,0.8
						c0,0-0.9,0.8-2.2,0.8c-1.8,0-3-1.3-3-3C47.2,40.7,48.4,39.6,50.1,39.6z M51.4,42c0-1-0.6-1.5-1.4-1.5c-0.8,0-1.5,0.6-1.7,1.5
						H51.4z"/>
				</g>
				<g>
					<path class="st7" d="M53.5,37.9h-1.1v-0.4H54v6.7c0,0.4,0.1,0.9,0.7,0.9c0.2,0,0.3,0,0.3,0l0,0.4c0,0-0.2,0-0.4,0
						c-0.7,0-1.1-0.4-1.1-1.3V37.9z"/>
				</g>
				<g>
					<path class="st7" d="M55.4,45h1v-4.8h-1.1v-0.4h1.6V45h1v0.4h-2.5V45z M56.4,37.5H57v0.8h-0.6V37.5z"/>
				</g>
				<g>
					<path class="st7" d="M58.4,45h1v-4.5c0-0.2-0.1-0.2-0.2-0.2h-0.8v-0.4h0.9c0.5,0,0.7,0.2,0.7,0.6v0.4c0,0.3,0,0.5,0,0.5h0
						c0.2-0.5,1-1.6,2.4-1.6c1.5,0,1.9,0.9,1.9,2.2V45h1v0.4h-1.5V42c0-1-0.1-1.9-1.4-1.9c-1.4,0-2.4,1.2-2.4,2.5V45h1v0.4h-2.5V45z
						"/>
				</g>
				<g>
					<path class="st7" d="M68.1,39.6c1.5,0,2.3,1.2,2.3,2.6c0,0.1,0,0.3,0,0.3h-4.6c0,1.6,1.1,2.6,2.4,2.6c1.1,0,1.8-0.7,1.8-0.7
						l0.3,0.4c0,0-0.8,0.8-2,0.8c-1.6,0-2.9-1.2-2.9-3C65.3,40.7,66.6,39.6,68.1,39.6z M69.9,42.1c-0.1-1.4-0.9-2-1.8-2
						c-1,0-2,0.7-2.2,2H69.9z"/>
				</g>
			</g>
		</g>
		<g>
			<g>
				<g>
					<path class="st7" d="M46.9,31.3c-2.4,0-4.8-0.6-6.9-1.8c-4.3-2.5-6.9-7-6.9-11.9S35.8,8,40,5.6c2.1-1.2,4.5-1.8,6.9-1.8
						c2.4,0,4.8,0.6,6.9,1.8c0.7,0.4,1.4,0.9,2,1.4c0.3,0.2,0.3,0.6,0.1,0.9c-0.2,0.3-0.6,0.3-0.9,0.1c-0.6-0.5-1.2-0.9-1.8-1.2
						c-1.9-1.1-4-1.7-6.2-1.7c-2.2,0-4.4,0.6-6.2,1.7c-3.8,2.2-6.2,6.4-6.2,10.8s2.4,8.6,6.2,10.8c1.9,1.1,4,1.7,6.2,1.7
						c2.2,0,4.4-0.6,6.2-1.7c1.9-1.1,3.5-2.7,4.6-4.6c0.4-0.6,0.7-1.3,0.9-2c0.1-0.3,0.5-0.5,0.8-0.4c0.3,0.1,0.5,0.5,0.4,0.8
						c-0.3,0.8-0.6,1.5-1,2.2c-1.2,2.1-3,3.8-5.1,5.1C51.7,30.7,49.3,31.3,46.9,31.3z"/>
				</g>
			</g>
			<g>
				<g>
					<defs>
						<circle id="SVGID_13_" cx="59.9" cy="15.2" r="0.7"/>
					</defs>
					<use xlink:href="#SVGID_13_"  style="overflow:visible;fill:#08723C;"/>
					<clipPath id="SVGID_2_">
						<use xlink:href="#SVGID_13_"  style="overflow:visible;"/>
					</clipPath>
					
						<rect x="59.9" y="13.9" transform="matrix(5.830805e-03 -1 1 5.830805e-03 44.9208 74.3656)" class="st1" width="0" height="1.3"/>
					<polygon class="st1" points="60.5,14.7 59.2,14.7 59.2,14.6 60.5,14.6 					"/>
					<polygon class="st1" points="60.5,14.8 59.2,14.8 59.2,14.7 60.5,14.7 					"/>
					<polygon class="st1" points="60.5,14.9 59.2,14.9 59.2,14.8 60.5,14.8 					"/>
					<polygon class="st1" points="60.5,15 59.2,15 59.2,14.9 60.5,14.9 					"/>
					<polygon class="st1" points="60.5,15.1 59.2,15.1 59.2,15 60.5,15 					"/>
					<polygon class="st1" points="60.5,15.2 59.2,15.2 59.2,15.1 60.5,15.1 					"/>
					<polygon class="st1" points="60.5,15.3 59.2,15.2 59.2,15.2 60.5,15.2 					"/>
					<polygon class="st1" points="60.5,15.3 59.2,15.3 59.2,15.2 60.5,15.3 					"/>
					<polygon class="st1" points="60.5,15.4 59.2,15.4 59.2,15.3 60.5,15.3 					"/>
					<polygon class="st1" points="60.5,15.5 59.2,15.5 59.2,15.4 60.5,15.4 					"/>
					<polygon class="st1" points="60.5,15.6 59.2,15.6 59.2,15.5 60.5,15.5 					"/>
					<polygon class="st1" points="60.5,15.7 59.2,15.7 59.2,15.6 60.5,15.6 					"/>
					<polygon class="st1" points="60.5,15.8 59.2,15.8 59.2,15.7 60.5,15.7 					"/>
					
						<rect x="59.8" y="15.2" transform="matrix(5.830805e-03 -1 1 5.830805e-03 43.6642 75.615)" class="st1" width="0.1" height="1.3"/>
				</g>
			</g>
			<g>
				<g>
					<defs>
						<circle id="SVGID_15_" cx="60.1" cy="17.5" r="0.7"/>
					</defs>
					<use xlink:href="#SVGID_15_"  style="overflow:visible;fill:#08723C;"/>
					<clipPath id="SVGID_4_">
						<use xlink:href="#SVGID_15_"  style="overflow:visible;"/>
					</clipPath>
					
						<rect x="60" y="16.2" transform="matrix(5.830805e-03 -1 1 5.830805e-03 42.8094 76.8577)" class="st2" width="0.1" height="1.3"/>
					<polygon class="st2" points="60.7,17 59.4,17 59.4,16.9 60.7,16.9 					"/>
					<polygon class="st2" points="60.7,17.1 59.4,17.1 59.4,17 60.7,17 					"/>
					<polygon class="st2" points="60.7,17.2 59.4,17.2 59.4,17.1 60.7,17.1 					"/>
					<polygon class="st2" points="60.7,17.3 59.4,17.3 59.4,17.2 60.7,17.2 					"/>
					<polygon class="st2" points="60.7,17.4 59.4,17.4 59.4,17.3 60.7,17.3 					"/>
					<polygon class="st2" points="60.7,17.5 59.4,17.5 59.4,17.4 60.7,17.4 					"/>
					<polygon class="st2" points="60.7,17.6 59.4,17.6 59.4,17.5 60.7,17.5 					"/>
					<polygon class="st2" points="60.7,17.7 59.4,17.7 59.4,17.6 60.7,17.6 					"/>
					<polygon class="st2" points="60.7,17.8 59.4,17.8 59.4,17.7 60.7,17.7 					"/>
					<polygon class="st2" points="60.7,17.9 59.4,17.9 59.4,17.8 60.7,17.8 					"/>
					<polygon class="st2" points="60.7,18 59.4,18 59.4,17.9 60.7,17.9 					"/>
					<polygon class="st2" points="60.7,18.1 59.4,18 59.4,18 60.7,18 					"/>
					<polygon class="st2" points="60.7,18.1 59.4,18.1 59.4,18 60.7,18.1 					"/>
					
						<rect x="60" y="17.5" transform="matrix(5.830805e-03 -1 1 5.830805e-03 41.5527 78.107)" class="st2" width="0" height="1.3"/>
				</g>
			</g>
			<g>
				<g>
					<g>
						<defs>
							<circle id="SVGID_17_" cx="59.3" cy="13" r="0.7"/>
						</defs>
						<use xlink:href="#SVGID_17_"  style="overflow:visible;fill:#08723C;"/>
						<clipPath id="SVGID_6_">
							<use xlink:href="#SVGID_17_"  style="overflow:visible;"/>
						</clipPath>
						<rect x="58.6" y="12.4" class="st3" width="0" height="1.3"/>
						<rect x="58.6" y="12.4" class="st3" width="0" height="1.3"/>
						<rect x="58.6" y="12.4" class="st3" width="0" height="1.3"/>
						<rect x="58.7" y="12.4" class="st3" width="0" height="1.3"/>
						<rect x="58.7" y="12.4" class="st3" width="0" height="1.3"/>
						<rect x="58.7" y="12.4" class="st3" width="0" height="1.3"/>
						<rect x="58.7" y="12.4" class="st3" width="0" height="1.3"/>
						<rect x="58.7" y="12.4" class="st3" width="0" height="1.3"/>
						<rect x="58.7" y="12.4" class="st3" width="0" height="1.3"/>
						<rect x="58.7" y="12.4" class="st3" width="0" height="1.3"/>
						<rect x="58.7" y="12.4" class="st3" width="0" height="1.3"/>
						<rect x="58.7" y="12.4" class="st3" width="0" height="1.3"/>
						<rect x="58.8" y="12.4" class="st3" width="0" height="1.3"/>
						<rect x="58.8" y="12.4" class="st3" width="0" height="1.3"/>
						<rect x="58.8" y="12.4" class="st3" width="0" height="1.3"/>
						<rect x="58.8" y="12.4" class="st3" width="0" height="1.3"/>
						<rect x="58.8" y="12.4" class="st3" width="0" height="1.3"/>
						<rect x="58.8" y="12.4" class="st3" width="0" height="1.3"/>
						<rect x="58.8" y="12.4" class="st3" width="0" height="1.3"/>
						<rect x="58.8" y="12.4" class="st3" width="0" height="1.3"/>
						<rect x="58.9" y="12.4" class="st3" width="0" height="1.3"/>
						<rect x="58.9" y="12.4" class="st3" width="0" height="1.3"/>
						<rect x="58.9" y="12.4" class="st3" width="0" height="1.3"/>
						<rect x="58.9" y="12.4" class="st3" width="0" height="1.3"/>
						<rect x="58.9" y="12.4" class="st3" width="0" height="1.3"/>
						<rect x="58.9" y="12.4" class="st3" width="0" height="1.3"/>
						<rect x="58.9" y="12.4" class="st3" width="0" height="1.3"/>
						<rect x="58.9" y="12.4" class="st3" width="0" height="1.3"/>
						<rect x="58.9" y="12.4" class="st3" width="0" height="1.3"/>
						<rect x="59" y="12.4" class="st3" width="0" height="1.3"/>
						<rect x="59" y="12.4" class="st3" width="0" height="1.3"/>
						<rect x="59" y="12.4" class="st3" width="0" height="1.3"/>
						<rect x="59" y="12.4" class="st3" width="0" height="1.3"/>
						<rect x="59" y="12.4" class="st3" width="0" height="1.3"/>
						<rect x="59" y="12.4" class="st3" width="0" height="1.3"/>
						<rect x="59" y="12.4" class="st3" width="0" height="1.3"/>
						<rect x="59" y="12.4" class="st3" width="0" height="1.3"/>
						<rect x="59" y="12.4" class="st3" width="0" height="1.3"/>
						<rect x="59.1" y="12.4" class="st3" width="0" height="1.3"/>
						<rect x="59.1" y="12.4" class="st3" width="0" height="1.3"/>
						<rect x="59.1" y="12.4" class="st3" width="0" height="1.3"/>
						<rect x="59.1" y="12.4" class="st3" width="0" height="1.3"/>
						<rect x="59.1" y="12.4" class="st3" width="0" height="1.3"/>
						<rect x="59.1" y="12.4" class="st3" width="0" height="1.3"/>
						<rect x="59.1" y="12.4" class="st3" width="0" height="1.3"/>
						<rect x="59.1" y="12.4" class="st3" width="0" height="1.3"/>
						<rect x="59.1" y="12.4" class="st3" width="0" height="1.3"/>
						<rect x="59.2" y="12.4" class="st3" width="0" height="1.3"/>
						<rect x="59.2" y="12.4" class="st3" width="0" height="1.3"/>
						<rect x="59.2" y="12.4" class="st3" width="0" height="1.3"/>
						<rect x="59.2" y="12.4" class="st3" width="0" height="1.3"/>
						<rect x="59.2" y="12.4" class="st3" width="0" height="1.3"/>
						<rect x="59.2" y="12.4" class="st3" width="0" height="1.3"/>
						<rect x="59.2" y="12.4" class="st3" width="0" height="1.3"/>
						<rect x="59.2" y="12.4" class="st3" width="0" height="1.3"/>
						<rect x="59.2" y="12.4" class="st3" width="0" height="1.3"/>
						<rect x="59.3" y="12.4" class="st3" width="0" height="1.3"/>
						<rect x="59.3" y="12.4" class="st3" width="0" height="1.3"/>
						<rect x="59.3" y="12.4" class="st3" width="0" height="1.3"/>
						<rect x="59.3" y="12.4" class="st3" width="0" height="1.3"/>
						<rect x="59.3" y="12.4" class="st3" width="0" height="1.3"/>
						<rect x="59.3" y="12.4" class="st3" width="0" height="1.3"/>
						<rect x="59.3" y="12.4" class="st3" width="0" height="1.3"/>
						<rect x="59.3" y="12.4" class="st3" width="0" height="1.3"/>
						<rect x="59.3" y="12.4" class="st3" width="0" height="1.3"/>
						<rect x="59.4" y="12.4" class="st3" width="0" height="1.3"/>
						<rect x="59.4" y="12.4" class="st3" width="0" height="1.3"/>
						<rect x="59.4" y="12.4" class="st3" width="0" height="1.3"/>
						<rect x="59.4" y="12.4" class="st3" width="0" height="1.3"/>
						<rect x="59.4" y="12.4" class="st3" width="0" height="1.3"/>
						<rect x="59.4" y="12.4" class="st3" width="0" height="1.3"/>
						<rect x="59.4" y="12.4" class="st3" width="0" height="1.3"/>
						<rect x="59.4" y="12.4" class="st3" width="0" height="1.3"/>
						<rect x="59.5" y="12.4" class="st3" width="0" height="1.3"/>
						<rect x="59.5" y="12.4" class="st3" width="0" height="1.3"/>
						<rect x="59.5" y="12.4" class="st3" width="0" height="1.3"/>
						<rect x="59.5" y="12.4" class="st3" width="0" height="1.3"/>
						<rect x="59.5" y="12.4" class="st3" width="0" height="1.3"/>
						<rect x="59.5" y="12.4" class="st3" width="0" height="1.3"/>
						<rect x="59.5" y="12.4" class="st3" width="0" height="1.3"/>
						<rect x="59.5" y="12.4" class="st3" width="0" height="1.3"/>
						<rect x="59.5" y="12.4" class="st3" width="0" height="1.3"/>
						<rect x="59.6" y="12.4" class="st3" width="0" height="1.3"/>
						<rect x="59.6" y="12.4" class="st3" width="0" height="1.3"/>
						<rect x="59.6" y="12.4" class="st3" width="0" height="1.3"/>
						<rect x="59.6" y="12.4" class="st3" width="0" height="1.3"/>
						<rect x="59.6" y="12.4" class="st3" width="0" height="1.3"/>
						<rect x="59.6" y="12.4" class="st3" width="0" height="1.3"/>
						<rect x="59.6" y="12.4" class="st3" width="0" height="1.3"/>
						<rect x="59.6" y="12.4" class="st3" width="0" height="1.3"/>
						<rect x="59.6" y="12.4" class="st3" width="0" height="1.3"/>
						<rect x="59.7" y="12.4" class="st3" width="0" height="1.3"/>
						<rect x="59.7" y="12.4" class="st3" width="0" height="1.3"/>
						<rect x="59.7" y="12.4" class="st3" width="0" height="1.3"/>
						<rect x="59.7" y="12.4" class="st3" width="0" height="1.3"/>
						<rect x="59.7" y="12.4" class="st3" width="0" height="1.3"/>
						<rect x="59.7" y="12.4" class="st3" width="0" height="1.3"/>
						<rect x="59.7" y="12.4" class="st3" width="0" height="1.3"/>
						<rect x="59.7" y="12.4" class="st3" width="0" height="1.3"/>
						<rect x="59.7" y="12.4" class="st3" width="0" height="1.3"/>
						<rect x="59.8" y="12.4" class="st3" width="0" height="1.3"/>
						<rect x="59.8" y="12.4" class="st3" width="0" height="1.3"/>
						<rect x="59.8" y="12.4" class="st3" width="0" height="1.3"/>
						<rect x="59.8" y="12.4" class="st3" width="0" height="1.3"/>
						<rect x="59.8" y="12.4" class="st3" width="0" height="1.3"/>
						<rect x="59.8" y="12.4" class="st3" width="0" height="1.3"/>
						<rect x="59.8" y="12.4" class="st3" width="0" height="1.3"/>
						<rect x="59.8" y="12.4" class="st3" width="0" height="1.3"/>
						<rect x="59.8" y="12.4" class="st3" width="0" height="1.3"/>
						<rect x="59.9" y="12.4" class="st3" width="0" height="1.3"/>
						<rect x="59.9" y="12.4" class="st3" width="0" height="1.3"/>
						<rect x="59.9" y="12.4" class="st3" width="0" height="1.3"/>
						<rect x="59.9" y="12.4" class="st3" width="0" height="1.3"/>
						<rect x="59.9" y="12.4" class="st3" width="0" height="1.3"/>
						<rect x="59.9" y="12.4" class="st3" width="0" height="1.3"/>
					</g>
				</g>
			</g>
			<g>
				<g>
					<g>
						<defs>
							<circle id="SVGID_19_" cx="58.3" cy="10.9" r="0.7"/>
						</defs>
						<use xlink:href="#SVGID_19_"  style="overflow:visible;fill:#08723C;"/>
						<clipPath id="SVGID_8_">
							<use xlink:href="#SVGID_19_"  style="overflow:visible;"/>
						</clipPath>
						<rect x="57.6" y="10.3" class="st4" width="0" height="1.3"/>
						<rect x="57.7" y="10.3" class="st4" width="0" height="1.3"/>
						<rect x="57.7" y="10.3" class="st4" width="0" height="1.3"/>
						<rect x="57.7" y="10.3" class="st4" width="0" height="1.3"/>
						<rect x="57.7" y="10.3" class="st4" width="0" height="1.3"/>
						<rect x="57.7" y="10.3" class="st4" width="0" height="1.3"/>
						<rect x="57.7" y="10.3" class="st4" width="0" height="1.3"/>
						<rect x="57.7" y="10.3" class="st4" width="0" height="1.3"/>
						<rect x="57.7" y="10.3" class="st4" width="0" height="1.3"/>
						<rect x="57.7" y="10.3" class="st4" width="0" height="1.3"/>
						<rect x="57.8" y="10.3" class="st4" width="0" height="1.3"/>
						<rect x="57.8" y="10.3" class="st4" width="0" height="1.3"/>
						<rect x="57.8" y="10.3" class="st4" width="0" height="1.3"/>
						<rect x="57.8" y="10.3" class="st4" width="0" height="1.3"/>
						<rect x="57.8" y="10.3" class="st4" width="0" height="1.3"/>
						<rect x="57.8" y="10.3" class="st4" width="0" height="1.3"/>
						<rect x="57.8" y="10.3" class="st4" width="0" height="1.3"/>
						<rect x="57.8" y="10.3" class="st4" width="0" height="1.3"/>
						<rect x="57.9" y="10.3" class="st4" width="0" height="1.3"/>
						<rect x="57.9" y="10.3" class="st4" width="0" height="1.3"/>
						<rect x="57.9" y="10.3" class="st4" width="0" height="1.3"/>
						<rect x="57.9" y="10.3" class="st4" width="0" height="1.3"/>
						<rect x="57.9" y="10.3" class="st4" width="0" height="1.3"/>
						<rect x="57.9" y="10.3" class="st4" width="0" height="1.3"/>
						<rect x="57.9" y="10.3" class="st4" width="0" height="1.3"/>
						<rect x="57.9" y="10.3" class="st4" width="0" height="1.3"/>
						<rect x="57.9" y="10.3" class="st4" width="0" height="1.3"/>
						<rect x="58" y="10.3" class="st4" width="0" height="1.3"/>
						<rect x="58" y="10.3" class="st4" width="0" height="1.3"/>
						<rect x="58" y="10.3" class="st4" width="0" height="1.3"/>
						<rect x="58" y="10.3" class="st4" width="0" height="1.3"/>
						<rect x="58" y="10.3" class="st4" width="0" height="1.3"/>
						<rect x="58" y="10.3" class="st4" width="0" height="1.3"/>
						<rect x="58" y="10.3" class="st4" width="0" height="1.3"/>
						<rect x="58" y="10.3" class="st4" width="0" height="1.3"/>
						<rect x="58" y="10.3" class="st4" width="0" height="1.3"/>
						<rect x="58.1" y="10.3" class="st4" width="0" height="1.3"/>
						<rect x="58.1" y="10.3" class="st4" width="0" height="1.3"/>
						<rect x="58.1" y="10.3" class="st4" width="0" height="1.3"/>
						<rect x="58.1" y="10.3" class="st4" width="0" height="1.3"/>
						<rect x="58.1" y="10.3" class="st4" width="0" height="1.3"/>
						<rect x="58.1" y="10.3" class="st4" width="0" height="1.3"/>
						<rect x="58.1" y="10.3" class="st4" width="0" height="1.3"/>
						<rect x="58.1" y="10.3" class="st4" width="0" height="1.3"/>
						<rect x="58.1" y="10.3" class="st4" width="0" height="1.3"/>
						<rect x="58.2" y="10.3" class="st4" width="0" height="1.3"/>
						<rect x="58.2" y="10.3" class="st4" width="0" height="1.3"/>
						<rect x="58.2" y="10.3" class="st4" width="0" height="1.3"/>
						<rect x="58.2" y="10.3" class="st4" width="0" height="1.3"/>
						<rect x="58.2" y="10.3" class="st4" width="0" height="1.3"/>
						<rect x="58.2" y="10.3" class="st4" width="0" height="1.3"/>
						<rect x="58.2" y="10.3" class="st4" width="0" height="1.3"/>
						<rect x="58.2" y="10.3" class="st4" width="0" height="1.3"/>
						<rect x="58.2" y="10.3" class="st4" width="0" height="1.3"/>
						<rect x="58.3" y="10.3" class="st4" width="0" height="1.3"/>
						<rect x="58.3" y="10.3" class="st4" width="0" height="1.3"/>
						<rect x="58.3" y="10.3" class="st4" width="0" height="1.3"/>
						<rect x="58.3" y="10.3" class="st4" width="0" height="1.3"/>
						<rect x="58.3" y="10.3" class="st4" width="0" height="1.3"/>
						<rect x="58.3" y="10.3" class="st4" width="0" height="1.3"/>
						<rect x="58.3" y="10.3" class="st4" width="0" height="1.3"/>
						<rect x="58.3" y="10.3" class="st4" width="0" height="1.3"/>
						<rect x="58.3" y="10.3" class="st4" width="0" height="1.3"/>
						<rect x="58.4" y="10.3" class="st4" width="0" height="1.3"/>
						<rect x="58.4" y="10.3" class="st4" width="0" height="1.3"/>
						<rect x="58.4" y="10.3" class="st4" width="0" height="1.3"/>
						<rect x="58.4" y="10.3" class="st4" width="0" height="1.3"/>
						<rect x="58.4" y="10.3" class="st4" width="0" height="1.3"/>
						<rect x="58.4" y="10.3" class="st4" width="0" height="1.3"/>
						<rect x="58.4" y="10.3" class="st4" width="0" height="1.3"/>
						<rect x="58.4" y="10.3" class="st4" width="0" height="1.3"/>
						<rect x="58.5" y="10.3" class="st4" width="0" height="1.3"/>
						<rect x="58.5" y="10.3" class="st4" width="0" height="1.3"/>
						<rect x="58.5" y="10.3" class="st4" width="0" height="1.3"/>
						<rect x="58.5" y="10.3" class="st4" width="0" height="1.3"/>
						<rect x="58.5" y="10.3" class="st4" width="0" height="1.3"/>
						<rect x="58.5" y="10.3" class="st4" width="0" height="1.3"/>
						<rect x="58.5" y="10.3" class="st4" width="0" height="1.3"/>
						<rect x="58.5" y="10.3" class="st4" width="0" height="1.3"/>
						<rect x="58.5" y="10.3" class="st4" width="0" height="1.3"/>
						<rect x="58.6" y="10.3" class="st4" width="0" height="1.3"/>
						<rect x="58.6" y="10.3" class="st4" width="0" height="1.3"/>
						<rect x="58.6" y="10.3" class="st4" width="0" height="1.3"/>
						<rect x="58.6" y="10.3" class="st4" width="0" height="1.3"/>
						<rect x="58.6" y="10.3" class="st4" width="0" height="1.3"/>
						<rect x="58.6" y="10.3" class="st4" width="0" height="1.3"/>
						<rect x="58.6" y="10.3" class="st4" width="0" height="1.3"/>
						<rect x="58.6" y="10.3" class="st4" width="0" height="1.3"/>
						<rect x="58.6" y="10.3" class="st4" width="0" height="1.3"/>
						<rect x="58.7" y="10.3" class="st4" width="0" height="1.3"/>
						<rect x="58.7" y="10.3" class="st4" width="0" height="1.3"/>
						<rect x="58.7" y="10.3" class="st4" width="0" height="1.3"/>
						<rect x="58.7" y="10.3" class="st4" width="0" height="1.3"/>
						<rect x="58.7" y="10.3" class="st4" width="0" height="1.3"/>
						<rect x="58.7" y="10.3" class="st4" width="0" height="1.3"/>
						<rect x="58.7" y="10.3" class="st4" width="0" height="1.3"/>
						<rect x="58.7" y="10.3" class="st4" width="0" height="1.3"/>
						<rect x="58.7" y="10.3" class="st4" width="0" height="1.3"/>
						<rect x="58.8" y="10.3" class="st4" width="0" height="1.3"/>
						<rect x="58.8" y="10.3" class="st4" width="0" height="1.3"/>
						<rect x="58.8" y="10.3" class="st4" width="0" height="1.3"/>
						<rect x="58.8" y="10.3" class="st4" width="0" height="1.3"/>
						<rect x="58.8" y="10.3" class="st4" width="0" height="1.3"/>
						<rect x="58.8" y="10.3" class="st4" width="0" height="1.3"/>
						<rect x="58.8" y="10.3" class="st4" width="0" height="1.3"/>
						<rect x="58.8" y="10.3" class="st4" width="0" height="1.3"/>
						<rect x="58.8" y="10.3" class="st4" width="0" height="1.3"/>
						<rect x="58.9" y="10.3" class="st4" width="0" height="1.3"/>
						<rect x="58.9" y="10.3" class="st4" width="0" height="1.3"/>
						<rect x="58.9" y="10.3" class="st4" width="0" height="1.3"/>
						<rect x="58.9" y="10.3" class="st4" width="0" height="1.3"/>
						<rect x="58.9" y="10.3" class="st4" width="0" height="1.3"/>
						<rect x="58.9" y="10.3" class="st4" width="0" height="1.3"/>
						<rect x="58.9" y="10.3" class="st4" width="0" height="1.3"/>
						<rect x="58.9" y="10.3" class="st4" width="0" height="1.3"/>
					</g>
				</g>
			</g>
			<g>
				<g>
					<g>
						<defs>
							<circle id="SVGID_21_" cx="57" cy="9.1" r="0.7"/>
						</defs>
						<use xlink:href="#SVGID_21_"  style="overflow:visible;fill:#08723C;"/>
						<clipPath id="SVGID_10_">
							<use xlink:href="#SVGID_21_"  style="overflow:visible;"/>
						</clipPath>
						
							<rect x="56.7" y="8.1" transform="matrix(5.830805e-03 -1 1 5.830805e-03 47.9456 65.6401)" class="st5" width="0.6" height="1.3"/>
						<polygon class="st5" points="57.6,9.1 56.3,9.1 56.3,9 57.6,9 						"/>
						<polygon class="st5" points="57.6,9.2 56.3,9.2 56.3,9.1 57.6,9.1 						"/>
						<polygon class="st5" points="57.6,9.3 56.3,9.3 56.3,9.2 57.6,9.2 						"/>
						<polygon class="st5" points="57.6,9.4 56.3,9.4 56.3,9.3 57.6,9.3 						"/>
						<polygon class="st5" points="57.6,9.5 56.3,9.5 56.3,9.4 57.6,9.4 						"/>
						<polygon class="st5" points="57.6,9.6 56.3,9.5 56.3,9.5 57.6,9.5 						"/>
						<polygon class="st5" points="57.6,9.6 56.3,9.6 56.3,9.5 57.6,9.6 						"/>
						
							<rect x="56.9" y="9" transform="matrix(5.830805e-03 -1 1 5.830805e-03 46.9686 66.6115)" class="st5" width="0.1" height="1.3"/>
					</g>
				</g>
			</g>
			<g>
				<g>
					<defs>
						<circle id="SVGID_23_" cx="59.9" cy="19.8" r="0.7"/>
					</defs>
					<use xlink:href="#SVGID_23_"  style="overflow:visible;fill:#08723C;"/>
					<clipPath id="SVGID_12_">
						<use xlink:href="#SVGID_23_"  style="overflow:visible;"/>
					</clipPath>
					
						<rect x="59.8" y="18.5" transform="matrix(5.830805e-03 -1 1 5.830805e-03 40.3774 78.8946)" class="st6" width="0" height="1.3"/>
					<polygon class="st6" points="60.5,19.3 59.2,19.3 59.2,19.2 60.5,19.2 					"/>
					<polygon class="st6" points="60.5,19.4 59.2,19.3 59.2,19.3 60.5,19.3 					"/>
					<polygon class="st6" points="60.5,19.4 59.2,19.4 59.2,19.3 60.5,19.4 					"/>
					<polygon class="st6" points="60.5,19.5 59.2,19.5 59.2,19.4 60.5,19.4 					"/>
					<polygon class="st6" points="60.5,19.6 59.2,19.6 59.2,19.5 60.5,19.5 					"/>
					<polygon class="st6" points="60.5,19.7 59.2,19.7 59.2,19.6 60.5,19.6 					"/>
					
						<rect x="59.5" y="19.4" transform="matrix(5.830805e-03 -1 1 5.830805e-03 39.447 79.8197)" class="st6" width="0.7" height="1.3"/>
				</g>
			</g>
			<g>
				<g>
					<g>
						<path class="st7" d="M44.4,22.5H46v-9.9h-3v2h-1.6v-3.5h11v3.5h-1.6v-2h-3v9.9h1.6v1.4h-5V22.5z"/>
					</g>
				</g>
			</g>
		</g>
	</g>
</g>
</svg>
